<svg width="20" height="19" viewBox="0 0 20 19" fill="none" xmlns="http://www.w3.org/2000/svg">
<mask id="path-1-inside-1_4_155" fill="white">
<path fill-rule="evenodd" clip-rule="evenodd" d="M1.71574 1.71574C-0.571915 4.0034 -0.571915 7.71239 1.71574 10L9.99998 18.2843L18.2843 10C20.5719 7.71236 20.5719 4.00337 18.2843 1.71574C15.9966 -0.571915 12.2876 -0.571915 9.99998 1.71574C7.71239 -0.571884 4.00334 -0.571884 1.71574 1.71574Z"/>
</mask>
<path d="M1.71574 10L3.12996 8.58583L3.12996 8.58583L1.71574 10ZM1.71574 1.71574L3.12996 3.12996L3.12997 3.12995L1.71574 1.71574ZM9.99998 18.2843L8.58577 19.6985L9.99998 21.1127L11.4142 19.6985L9.99998 18.2843ZM18.2843 10L19.6985 11.4143L19.6985 11.4143L18.2843 10ZM18.2843 1.71574L19.6985 0.30154L19.6985 0.30153L18.2843 1.71574ZM9.99998 1.71574L8.58576 3.12995L9.99998 4.54418L11.4142 3.12996L9.99998 1.71574ZM3.12996 8.58583C1.62335 7.07922 1.62335 4.63657 3.12996 3.12996L0.30153 0.30153C-2.76718 3.37024 -2.76718 8.34555 0.30153 11.4143L3.12996 8.58583ZM11.4142 16.8701L3.12996 8.58583L0.301528 11.4143L8.58577 19.6985L11.4142 16.8701ZM16.8701 8.58583L8.58577 16.8701L11.4142 19.6985L19.6985 11.4143L16.8701 8.58583ZM16.8701 3.12995C18.3766 4.63654 18.3767 7.07921 16.8701 8.58584L19.6985 11.4143C22.7672 8.3455 22.7671 3.3702 19.6985 0.30154L16.8701 3.12995ZM11.4142 3.12996C12.9208 1.62335 15.3635 1.62335 16.8701 3.12996L19.6985 0.30153C16.6298 -2.76718 11.6545 -2.76718 8.58577 0.30153L11.4142 3.12996ZM3.12997 3.12995C4.63651 1.62338 7.07922 1.62338 8.58576 3.12995L11.4142 0.30154C8.34556 -2.76715 3.37017 -2.76715 0.301521 0.30154L3.12997 3.12995Z" fill="white" mask="url(#path-1-inside-1_4_155)"/>
<path d="M1.71574 1.71574C-0.571915 4.0034 -0.571915 7.71239 1.71574 10L9.99998 18.2843L18.2843 10C20.5719 7.71236 20.5719 4.00337 18.2843 1.71574C15.9966 -0.571915 12.2876 -0.571915 9.99998 1.71574C7.71239 -0.571884 4.00334 -0.571884 1.71574 1.71574Z" fill="white"/>
</svg>
