<svg width="19" height="18" viewBox="0 0 19 18" fill="none" xmlns="http://www.w3.org/2000/svg">
<path d="M5.28977 1C3.79865 1 2.44247 1.49675 1.48438 2.4026C0.526278 3.30844 0 4.6039 0 6.09091C0 8.60714 1.60245 10.4838 3.42756 12.0649C5.25266 13.6461 7.38139 15.0455 8.82528 16.6883C8.98384 16.8799 9.21999 16.9935 9.47301 17H9.52699C9.78001 16.9935 10.0162 16.8799 10.1747 16.6883C11.6186 15.0455 13.7473 13.6461 15.5724 12.0649C17.3975 10.4838 19 8.60714 19 6.09091C19 4.6039 18.4467 3.30844 17.4886 2.4026C16.5305 1.49675 15.2014 1 13.7102 1C12.2326 1 11.0215 1.77597 10.1747 2.48052C9.75977 2.82468 9.73952 2.91883 9.5 3.18182C9.26385 2.91883 9.24023 2.82468 8.82528 2.48052C7.98189 1.77597 6.7674 1 5.28977 1ZM5.28977 2.66234C6.10281 2.66234 7.0103 3.18506 7.69176 3.75325C8.37323 4.32143 8.7983 4.87013 8.7983 4.87013C8.96023 5.08766 9.22337 5.21753 9.5 5.21753C9.77663 5.21753 10.0398 5.08766 10.2017 4.87013C10.2017 4.87013 10.6234 4.32143 11.3082 3.75325C11.9931 3.18506 12.8938 2.66234 13.7102 2.66234C14.8201 2.66234 15.6939 3.02597 16.3011 3.5974C16.9084 4.16883 17.2727 4.97727 17.2727 6.09091C17.2727 7.93182 16.1156 9.34091 14.4119 10.8182C12.9039 12.1266 11.062 13.4675 9.5 15.0519C7.93466 13.461 6.09943 12.1266 4.58807 10.8182C2.88441 9.34091 1.72727 7.93182 1.72727 6.09091C1.72727 4.97727 2.09162 4.16883 2.69886 3.5974C3.30611 3.02597 4.17649 2.66234 5.28977 2.66234Z" fill="#EB5757"/>
</svg>
