<svg width="24" height="24" viewBox="0 0 24 24" fill="none" xmlns="http://www.w3.org/2000/svg">
<path fill-rule="evenodd" clip-rule="evenodd" d="M19.7146 14.3463C16.8903 17.1706 12.311 17.1706 9.48666 14.3463C6.66228 11.5219 6.66228 6.94267 9.48666 4.11829C12.311 1.29392 16.8903 1.29392 19.7146 4.11829C22.539 6.94267 22.539 11.5219 19.7146 14.3463ZM9.48084 16.917C13.068 19.3124 17.9624 18.9269 21.1288 15.7605C24.7343 12.155 24.7343 6.30952 21.1288 2.70408C17.5234 -0.90136 11.6779 -0.90136 8.07244 2.70408C4.90597 5.87055 4.52047 10.7649 6.9159 14.3521C6.84325 14.3945 6.77479 14.4468 6.71252 14.5091L0.2929 20.9287C-0.0976334 21.3193 -0.0976334 21.9524 0.2929 22.3429L1.48997 23.54C1.88049 23.9305 2.51365 23.9305 2.90417 23.54L9.3238 17.1204C9.38609 17.0581 9.43842 16.9897 9.48084 16.917Z" fill="#EB5757"/>
</svg>
