<svg width="19" height="18" viewBox="0 0 19 18" fill="none" xmlns="http://www.w3.org/2000/svg">
<path d="M8.00852 0C7.68359 0.0621996 7.44922 0.354267 7.45455 0.692308V1.38462C7.45455 1.76593 7.76083 2.07692 8.13636 2.07692V2.89904C4.6527 3.55349 2 6.66346 2 10.3846C2 14.579 5.3718 18 9.5 18C13.6309 18 17 14.579 17 10.3846C17 8.21575 16.0998 6.25781 14.6562 4.86779L15.3807 3.95913C15.6151 3.66166 15.5671 3.22356 15.2741 2.98558L14.4432 2.33654C14.4299 2.32031 14.4165 2.30679 14.4006 2.29327C14.1023 2.09315 13.7028 2.15805 13.4844 2.44471L12.6747 3.50481C12.1048 3.23438 11.5002 3.01803 10.8636 2.89904V2.07692C11.2392 2.07692 11.5455 1.76593 11.5455 1.38462V0.692308C11.5455 0.310998 11.2392 0 10.8636 0H8.13636C8.11506 0 8.09375 0 8.07244 0C8.05114 0 8.02983 0 8.00852 0ZM9.5 4.84615C12.5256 4.84615 14.9545 7.3152 14.9545 10.3846C14.9545 13.454 12.5256 15.9231 9.5 15.9231C6.47976 15.9231 4.04545 13.454 4.04545 10.3846C4.04545 7.3152 6.47976 4.84615 9.5 4.84615ZM5.32386 7.11779C5.19869 7.13942 5.0815 7.21514 5.00426 7.33413C4.84712 7.56941 4.93768 7.84255 5.15341 8.04808C5.31587 8.19952 7.21218 9.76803 8.15767 10.5577C8.2429 11.2392 8.80487 11.7692 9.5 11.7692C10.2537 11.7692 10.8636 11.1499 10.8636 10.3846C10.8636 9.61929 10.2537 9 9.5 9C9.37482 9 9.25231 9.01082 9.13778 9.04327C8.0245 8.44561 5.81658 7.26382 5.70739 7.20433C5.58487 7.13672 5.44904 7.09615 5.32386 7.11779Z" fill="#EB5757"/>
</svg>
