<svg width="16" height="16" viewBox="0 0 16 16" fill="none" xmlns="http://www.w3.org/2000/svg">
<path d="M7.81441 0.46217C7.88159 0.294876 8.11841 0.294876 8.18559 0.46217L10.0222 5.03574C10.0508 5.10698 10.1177 5.15556 10.1943 5.16075L15.1116 5.49417C15.2914 5.50637 15.3646 5.7316 15.2263 5.84719L11.4441 9.00723C11.3852 9.05646 11.3596 9.13506 11.3784 9.20951L12.5808 13.9891C12.6248 14.164 12.4332 14.3032 12.2805 14.2073L8.10634 11.5868C8.04132 11.5459 7.95868 11.5459 7.89366 11.5868L3.71952 14.2073C3.56684 14.3032 3.37524 14.164 3.41923 13.9891L4.62165 9.20951C4.64038 9.13506 4.61484 9.05646 4.55592 9.00723L0.773746 5.84719C0.6354 5.7316 0.708584 5.50637 0.888449 5.49417L5.80572 5.16075C5.88232 5.15556 5.94918 5.10698 5.97779 5.03574L7.81441 0.46217Z" fill="#E8E8E8"/>
<path fill-rule="evenodd" clip-rule="evenodd" d="M8.00001 0.53671C8.00001 0.426253 7.89068 0.334785 7.83173 0.428194C7.82514 0.43863 7.81933 0.449959 7.81442 0.462182C7.81442 0.462182 7.81442 0.462183 7.81442 0.462184L5.9778 5.03575C5.97779 5.03575 5.97779 5.03575 5.97779 5.03576C5.94919 5.10699 5.88233 5.15557 5.80574 5.16076C5.80574 5.16076 5.80573 5.16076 5.80573 5.16076L0.888463 5.49418C0.888461 5.49418 0.88846 5.49418 0.888459 5.49418C0.70859 5.50638 0.63541 5.73161 0.773752 5.8472C0.773753 5.8472 0.773753 5.8472 0.773754 5.8472L4.55593 9.00724C4.55593 9.00724 4.55593 9.00724 4.55593 9.00724C4.61485 9.05647 4.64039 9.13507 4.62166 9.20952C4.62166 9.20952 4.62166 9.20952 4.62166 9.20952L3.41924 13.9892C3.41924 13.9892 3.41924 13.9892 3.41924 13.9892C3.37526 14.164 3.56685 14.3032 3.71953 14.2073C3.71953 14.2073 3.71953 14.2073 3.71953 14.2073L7.89367 11.5868C7.89367 11.5868 7.89367 11.5868 7.89367 11.5868C7.94612 11.5538 8.00001 11.506 8.00001 11.444V0.53671Z" fill="#F2C94C"/>
</svg>
